<svg xmlns="http://www.w3.org/2000/svg" viewBox="0 0 1200 675" role="img" aria-label="소양호 카누잉">
  <defs>
    <linearGradient id="sky" x1="0" x2="0" y1="0" y2="1">
      <stop offset="0" stop-color="#d9f0ff"/>
      <stop offset="0.62" stop-color="#f3fbff"/>
      <stop offset="1" stop-color="#c9e7ef"/>
    </linearGradient>
    <linearGradient id="lake" x1="0" x2="0" y1="0" y2="1">
      <stop offset="0" stop-color="#4fa9c9"/>
      <stop offset="1" stop-color="#1f6f91"/>
    </linearGradient>
    <linearGradient id="canoe" x1="0" x2="1">
      <stop offset="0" stop-color="#ff7947"/>
      <stop offset="1" stop-color="#d84315"/>
    </linearGradient>
    <filter id="soft" x="-20%" y="-20%" width="140%" height="140%">
      <feGaussianBlur stdDeviation="8"/>
    </filter>
  </defs>
  <rect width="1200" height="675" fill="url(#sky)"/>
  <circle cx="188" cy="112" r="45" fill="#fff1b9" opacity=".9"/>
  <path d="M0 340 C130 250 235 286 360 220 C498 147 632 252 745 208 C896 150 1010 244 1200 174 L1200 675 L0 675 Z" fill="#5f8a69"/>
  <path d="M0 382 C170 310 282 340 420 278 C590 205 708 326 860 252 C990 190 1086 260 1200 235 L1200 675 L0 675 Z" fill="#3f725e"/>
  <path d="M0 427 C135 390 246 409 368 368 C520 318 660 405 802 345 C955 280 1060 337 1200 298 L1200 675 L0 675 Z" fill="#2d5e57"/>
  <path d="M0 430 C170 394 310 437 463 402 C645 360 812 404 976 360 C1060 338 1135 338 1200 350 L1200 675 L0 675 Z" fill="url(#lake)"/>
  <path d="M55 494 C220 462 360 514 530 486 C712 455 836 492 1003 460 C1080 445 1140 448 1200 458" fill="none" stroke="#9fd8e5" stroke-width="5" opacity=".38"/>
  <path d="M30 570 C210 536 382 592 560 560 C740 529 905 574 1116 534" fill="none" stroke="#b8e6ef" stroke-width="6" opacity=".3"/>
  <ellipse cx="596" cy="541" rx="168" ry="18" fill="#14495b" opacity=".18" filter="url(#soft)"/>
  <path d="M415 503 C476 539 603 557 742 520 C710 560 481 574 415 503 Z" fill="url(#canoe)"/>
  <path d="M455 512 C520 535 614 544 701 524" fill="none" stroke="#ffd0bc" stroke-width="6" opacity=".72"/>
  <circle cx="548" cy="492" r="16" fill="#15333a"/>
  <path d="M537 506 L522 534" stroke="#15333a" stroke-width="8" stroke-linecap="round"/>
  <path d="M562 505 L587 535" stroke="#15333a" stroke-width="8" stroke-linecap="round"/>
  <path d="M483 461 L673 564" stroke="#7a4e2b" stroke-width="7" stroke-linecap="round"/>
  <path d="M456 447 C487 441 514 451 526 475 C491 483 464 471 456 447 Z" fill="#f5fbff"/>
  <path d="M669 548 C700 540 729 552 742 577 C705 584 680 573 669 548 Z" fill="#f5fbff"/>
  <circle cx="650" cy="500" r="16" fill="#15333a"/>
  <path d="M638 514 L618 540" stroke="#15333a" stroke-width="8" stroke-linecap="round"/>
  <path d="M664 514 L690 537" stroke="#15333a" stroke-width="8" stroke-linecap="round"/>
  <path d="M594 462 L786 552" stroke="#7a4e2b" stroke-width="7" stroke-linecap="round"/>
  <path d="M567 450 C599 446 626 459 635 484 C599 489 575 476 567 450 Z" fill="#f5fbff"/>
  <path d="M782 537 C814 532 839 545 849 569 C813 574 790 562 782 537 Z" fill="#f5fbff"/>
</svg>
